<svg width="2346" height="1971" viewBox="0 0 2346 1971" fill="none" xmlns="http://www.w3.org/2000/svg">
<path d="M1827.08 55.3477L1852.29 56.4932L1904.98 61.0752L1962.25 67.9482L2005.78 74.8213L2042.44 81.6943L2077.95 89.7129L2116.9 100.022L2151.26 111.478L2179.9 122.933L2203.96 134.388L2229.16 149.279L2244.05 159.589L2260.09 167.607L2281.85 181.354L2297.89 193.954L2312.78 207.7L2324.24 221.446L2333.4 236.338L2340.27 252.375L2344.85 270.703L2346 283.304V294.759L2342.56 319.96L2336.84 338.288L2331.11 352.034L2321.94 370.362L2309.34 389.836L2299.03 403.582L2285.29 419.619L2269.25 436.802L2257.8 448.257L2248.63 456.275L2237.18 466.585L2205.1 491.786L2184.48 506.678L2167.3 518.133L2147.83 530.733L2119.19 547.916L2095.13 561.662L2069.93 575.408L2032.13 594.882L2005.78 607.482L1959.96 628.102L1910.71 648.721L1860.3 668.194L1825.94 680.795L1793.87 692.25L1790.43 695.687L1773.25 730.052H1808.76L1809.9 731.197V770.145L1808.76 771.29H1767.52L1766.37 742.652L1748.04 779.309L1745.75 782.745H1752.63L1753.77 810.237L1799.59 811.383L1800.74 845.748V873.24H1846.56L1847.7 874.386V919.061L1846.56 920.206H1800.74L1799.59 892.714H1754.92L1753.77 891.568V872.095H1738.88L1737.74 844.603H1714.83L1703.37 866.367V901.878H1718.26V930.516H1765.23V990.082L1764.08 991.228H1703.37V962.59H1656.4H1654.11L1649.53 971.754V993.519L1695.35 994.664V1047.36L1694.21 1048.5H1642.66L1641.51 1047.36V1019.87H1624.33L1622.04 1025.59L1599.13 1071.41L1587.67 1093.18L1576.22 1116.09L1575.07 1117.23H1371.17L1357.43 1090.89L1325.35 1089.74L1319.62 1080.58L1297.86 1037.05L1286.41 1015.28L1252.04 946.553L1240.58 924.788L1210.8 865.222L1199.35 843.457L1197.06 838.875L1173 842.312L1107.71 852.621L1108.85 854.912V882.404H1155.82V1121.82L1154.67 1122.96H607.119L567.026 1120.67L533.807 1116.09L502.878 1109.21L473.095 1100.05L449.039 1090.89L415.819 1074.85L394.055 1062.25L380.309 1053.08L353.962 1038.19L331.052 1023.3L312.724 1009.56L294.396 994.664L279.504 980.918L249.721 951.135L239.411 938.534L230.247 927.079L222.229 916.77L105.387 915.624L71.0215 914.479V913.333L142.043 911.042L213.064 907.605L215.355 906.46L203.9 889.277V886.986H30.9287L28.6377 884.695L107.678 882.404L156.935 880.113L247.43 874.386L345.943 866.367L459.349 854.912L556.717 843.457L635.757 833.147L699.905 823.983L797.273 809.092L898.078 791.909L979.409 777.018L1060.74 760.98L1137.49 744.943L1218.82 726.615L1304.73 705.996L1396.37 681.94L1473.12 660.176L1552.16 636.12L1594.55 622.374L1641.51 606.337L1691.92 588.009L1727.43 574.263L1769.81 557.08L1804.17 542.188L1827.08 531.879L1861.45 515.842L1891.23 500.95L1939.34 474.604L1962.25 460.857L1987.46 444.82L2005.78 432.22L2027.55 416.183L2045.88 401.291L2058.48 390.981L2067.64 381.817L2076.81 373.799L2087.12 363.489L2095.13 354.325L2107.73 339.434L2122.63 317.669L2135.23 295.904L2144.39 274.14L2151.26 250.084L2152.41 236.338L2150.12 220.301L2143.25 203.118L2131.79 187.081L2114.61 169.898L2098.57 158.443L2068.79 144.697L2036.71 132.097L2011.51 122.933L1982.87 113.769L1934.76 100.022L1899.25 90.8584L1872.91 83.9854L1877.49 82.8398L1933.62 87.4219L1945.07 88.5674L1899.25 74.8213L1846.56 61.0752L1827.08 56.4932V55.3477Z" fill="#F8F100"/>
<path d="M1230.28 66.8027H1262.35V89.7129H1277.24V117.205H1323.06L1324.21 118.351V167.607L1323.06 168.753H1274.95V231.756L1234.86 271.849L1289.84 272.994V301.632H1336.81V366.926H1304.73L1321.92 401.291L1333.37 423.056L1362.01 480.331L1373.46 502.096L1402.1 559.371L1413.56 581.136L1441.05 636.12L1447.92 648.721V651.012L1397.52 664.758L1349.41 677.358L1280.68 694.541L1206.22 711.724L1194.76 712.869L1183.31 691.104L1177.58 679.649L1151.24 685.377H1147.8L1138.63 668.194L1093.96 578.845L1082.5 557.08L1046.99 486.059L1038.98 471.167V468.876L1034.39 471.167L594.519 472.312L573.899 475.749L556.717 480.331L539.534 487.204L520.061 497.514L504.023 508.969L492.568 519.278L484.55 526.151L476.531 535.315L462.785 553.644L452.476 571.972L446.748 584.572L441.021 601.755L437.584 615.501L435.293 632.684V669.34L438.729 691.104L443.312 708.287L450.185 725.47L460.494 744.943L471.949 760.98L492.568 783.891L501.732 790.764L517.77 796.491V797.637H512.042L517.77 803.364L533.807 812.528L553.28 820.547L565.881 825.129V826.274L474.24 836.584L392.909 844.603L312.724 851.476L245.139 856.058L232.538 833.147L230.247 825.129L225.665 826.274L198.173 827.42L184.427 802.219L172.972 774.727L161.517 740.361L153.498 707.142L148.916 677.358L146.625 652.157V594.882L148.916 569.681L154.644 533.024L162.662 500.95L171.826 473.458L184.427 443.675L198.173 417.328L213.064 393.272L226.811 373.799L242.848 354.325L256.594 338.288L285.231 309.65L297.832 299.341L308.142 290.177L329.906 274.14L352.816 259.248L378.018 245.502L394.055 237.483L424.983 224.883L455.912 215.719L485.695 208.846L517.77 204.264L546.407 201.973H1161.54V158.443H1151.24V113.769H1195.91V136.679H1225.69V89.7129H1230.28V66.8027ZM1227.98 140.115V164.171H1272.66V140.115H1227.98ZM1207.37 222.592L1200.49 230.61H1208.51V222.592H1207.37Z" fill="#FDCE00"/>
<path d="M1096.25 852.621L1107.71 853.767L1108.85 854.912V882.404H1155.82V1121.82L1154.67 1122.96H607.119L567.026 1120.67L533.807 1116.09L502.878 1109.21L473.095 1100.05L449.039 1090.89L415.819 1074.85L394.055 1062.25L380.309 1053.08L353.962 1038.19L331.052 1023.3L312.724 1009.56L294.396 994.664L279.504 980.918L249.721 951.135L239.411 938.534L230.247 927.079L222.229 916.77L105.387 915.624L71.0215 914.479V913.333L142.043 911.042L213.064 907.605L215.355 906.46L203.9 889.277V888.132L214.21 886.986L292.104 885.841L386.036 883.55L468.513 880.113L577.336 874.386L687.305 866.367L788.109 857.203L820.184 853.767L1096.25 852.621Z" fill="#C3C0C0"/>
<path d="M1277.24 118.351H1324.21V167.607L1323.06 168.753H1274.95V231.756L1234.86 271.849L1289.84 272.994V301.632H1336.81V366.926H1304.73L1321.92 401.291L1333.37 423.056L1362.01 480.331L1373.46 502.096L1402.1 559.371L1413.56 581.136L1441.05 636.12L1447.92 648.721V651.012L1397.52 664.758L1349.41 677.358L1280.68 694.541L1206.22 711.724L1194.76 712.869L1183.31 691.104L1177.58 679.649L1151.24 685.377H1147.8L1138.63 668.194L1093.96 578.845L1082.5 557.08L1046.99 486.059L1038.98 471.167V468.876L1034.39 471.167L594.519 472.312L573.899 475.749L556.717 480.331L539.534 487.204L520.061 497.514L504.023 508.969L492.568 519.278L484.55 526.151L476.531 535.315L462.785 553.644L452.476 571.972L446.748 584.572L441.021 601.755L437.584 615.501L435.293 632.684V669.34L438.729 691.104L443.312 708.287L450.185 725.47L460.494 744.943L471.949 760.98L492.568 783.891L498.296 789.618L491.423 787.327L474.24 778.163L459.349 767.854L444.457 755.253L431.856 742.652L419.256 726.615L406.655 707.142L397.491 686.522L390.618 662.467L387.182 640.702V605.191L390.618 582.281L397.491 559.371L407.801 536.461L419.256 519.278L428.42 507.823L438.729 496.368L449.039 486.059L468.513 471.167L485.695 460.857L505.169 452.839L528.079 445.966L542.971 443.675L557.862 442.529L988.573 441.384L1199.35 230.61H1208.51V221.446L1226.84 203.118L1227.98 164.171H1273.8V140.115H1277.24V118.351Z" fill="#FDCE00"/>
<path d="M1702.22 132.097H1987.46L1977.15 153.861L1973.71 160.734H2034.42L2000.06 229.465L1988.6 251.229L1969.13 290.177L1957.67 311.941L1943.93 339.434L1932.47 361.198L1913 400.146L1901.54 421.91L1882.07 460.857L1870.61 482.622L1860.3 503.241L1817.92 522.715L1788.14 535.315L1757.21 547.916L1715.97 563.953L1672.44 579.99L1623.18 597.173L1560.18 617.792L1515.51 631.538H1510.92L1513.22 625.811L1534.98 582.281L1504.05 592.591L1466.25 604.046H1463.96L1466.25 597.173L1486.87 555.935L1498.32 534.17L1534.98 460.857L1546.44 439.093L1583.09 365.78L1594.55 344.016L1636.93 259.248L1648.39 237.483L1683.9 166.462L1695.35 144.697L1702.22 132.097Z" fill="#F8F100"/>
<path d="M1741.17 664.758L1744.61 665.903L1725.13 703.705L1709.1 735.779L1697.64 757.544L1678.17 796.491L1666.71 818.256L1656.4 840.021V900.732L1624.33 901.878L1600.27 948.844L1588.82 970.608L1559.04 1030.17L1547.58 1051.94L1529.25 1088.6L1528.11 1089.74L1357.43 1090.89L1325.35 1089.74L1319.62 1080.58L1297.86 1037.05L1286.41 1015.28L1252.04 946.553L1240.58 924.788L1210.8 865.222L1199.35 843.457L1179.87 804.51L1272.66 787.327L1318.48 778.163L1378.05 765.562L1431.88 752.962L1488.01 739.216L1549.87 723.179L1607.15 707.142L1664.42 689.959L1711.39 675.067L1741.17 664.758Z" fill="#E3E1E1"/>
<path d="M1230.28 66.8027H1262.35V89.7129H1277.24V117.205H1323.06V118.351H1277.24V140.115H1273.8V164.171H1272.66V140.115H1227.98V203.118L989.719 441.384H657.521L666.686 436.802L662.104 426.492L648.357 400.146L639.193 380.672L632.32 369.217L623.156 349.743L610.556 326.833L592.228 290.177L581.918 270.703L570.463 248.938L555.571 219.155L549.844 208.846L547.553 204.264L548.698 201.973H1161.54V158.443H1151.24V113.769H1195.91V136.679H1225.69V89.7129H1230.28V66.8027Z" fill="#F8F100"/>
<path d="M2245.2 160.734L2253.21 164.171L2271.54 174.48L2291.02 188.227L2308.2 203.118L2320.8 216.864L2332.25 234.047L2340.27 252.375L2344.85 270.703L2346 283.304V294.759L2342.56 319.96L2336.84 338.288L2331.11 352.034L2321.94 370.362L2309.34 389.836L2299.03 403.582L2285.29 419.619L2269.25 436.802L2257.8 448.257L2248.63 456.275L2237.18 466.585L2205.1 491.786L2184.48 506.678L2167.3 518.133L2147.83 530.733L2119.19 547.916L2095.13 561.662L2069.93 575.408L2032.13 594.882L2005.78 607.482L1959.96 628.102L1910.71 648.721L1860.3 668.194L1825.94 680.795L1793.87 692.25L1790.43 695.687L1773.25 730.052H1808.76L1809.9 731.197V770.145L1808.76 771.29H1767.52L1766.37 742.652L1748.04 779.309L1745.75 782.745H1752.63L1753.77 810.237L1799.59 811.383L1800.74 845.748V873.24H1846.56L1847.7 874.386V919.061L1846.56 920.206H1800.74L1799.59 892.714H1754.92L1753.77 891.568V872.095H1738.88L1737.74 844.603H1714.83L1703.37 866.367V901.878H1718.26V930.516H1765.23V990.082L1764.08 991.228H1703.37V962.59H1656.4H1654.11L1649.53 971.754V993.519L1695.35 994.664V1047.36L1694.21 1048.5H1642.66L1641.51 1047.36V1019.87H1624.33L1622.04 1025.59L1599.13 1071.41L1587.67 1093.18L1576.22 1116.09L1575.07 1117.23H1371.17L1358.57 1093.18V1089.74L1528.11 1088.6L1552.16 1040.48L1563.62 1018.72L1583.09 979.772L1594.55 958.008L1614.02 919.061L1624.33 900.732H1656.4L1655.26 838.875L1675.88 797.637L1687.33 775.872L1706.81 736.925L1718.26 715.16L1737.74 676.213L1744.61 663.612L1793.87 646.43L1847.7 625.811L1890.09 608.628L1934.76 589.154L1973.71 570.826L2002.35 557.08L2033.28 541.043L2059.62 526.151L2087.12 510.114L2114.61 492.932L2136.37 478.04L2152.41 466.585L2166.16 456.275L2177.61 447.111L2190.21 436.802L2207.39 421.91L2238.32 390.981L2248.63 378.381L2260.09 363.489L2272.69 344.016L2285.29 319.96L2293.31 295.904L2296.74 278.722L2297.89 267.267V252.375L2294.45 230.61L2287.58 212.282L2278.42 196.245L2265.81 181.354L2250.92 166.462L2245.2 163.025V160.734Z" fill="black"/>
<path d="M809.874 854.912H939.316V856.058L890.06 857.203L876.313 864.076L849.967 878.968L817.893 896.15L799.564 906.46L786.964 913.333L770.927 922.497L759.472 928.225L734.271 941.971L679.286 971.754L663.249 980.918L646.066 990.082L620.865 1003.83L593.373 1018.72L584.209 1024.45L572.754 1030.17L534.952 1050.79L525.788 1056.52L514.333 1062.25L489.132 1076L483.404 1079.43L482.259 1081.72H479.968V1084.01L483.404 1085.16L462.785 1082.87L437.584 1076L414.674 1067.98L390.618 1057.67L386.036 1056.52L369.999 1047.36L348.234 1034.76L331.052 1023.3L312.724 1009.56L294.396 994.664L279.504 980.918L249.721 951.135L239.411 938.534L230.247 927.079L222.229 916.77L105.387 915.624L71.0215 914.479V913.333L142.043 911.042L213.064 907.605L215.355 906.46L203.9 889.277V888.132L214.21 886.986L292.104 885.841L386.036 883.55L468.513 880.113L577.336 874.386L687.305 866.367L788.109 857.203L809.874 854.912Z" fill="#E2E0E0"/>
<path d="M1741.17 664.758L1744.61 665.903L1725.13 703.705L1709.1 735.779L1697.64 757.544L1678.17 796.491L1666.71 818.256L1656.4 840.021V900.732L1624.33 901.878L1600.27 948.844L1588.82 970.608L1559.04 1030.17L1547.58 1051.94L1529.25 1088.6L1528.11 1089.74L1357.43 1090.89V1088.6L1476.56 1087.45L1475.41 1084.01L1474.27 742.652L1523.53 730.052L1583.09 714.015L1638.08 697.978L1689.62 681.94L1732.01 668.194L1741.17 664.758Z" fill="#C3C0C0"/>
<path d="M1247.46 719.742L1262.35 720.888H1268.08L1273.8 739.216L1279.53 754.107L1281.82 764.417L1287.55 779.309V783.891L1289.84 785.036L1217.67 798.782L1181.02 805.655L1192.47 827.42L1197.06 837.729L1173 842.312L1107.71 852.621L1096.25 853.767L820.184 854.912L752.599 861.785L657.521 869.804L559.008 876.677L445.603 882.404L386.036 884.695L292.104 886.986L203.9 888.132L30.9287 886.986L28.6377 884.695L107.678 882.404L156.935 880.113L247.43 874.386L345.943 866.367L459.349 854.912L556.717 843.457L635.757 833.147L699.905 823.983L797.273 809.092L898.078 791.909L979.409 777.018L1060.74 760.98L1137.49 744.943L1218.82 726.615L1247.46 719.742Z" fill="#FDCE00"/>
<path d="M1277.24 118.351H1324.21V167.607L1323.06 168.753H1274.95V231.756L1234.86 271.849L1232.57 272.994H1223.4L1221.11 277.576L1036.68 462.003L1037.83 467.73L1034.39 471.167L594.519 472.312L573.899 475.749L556.717 480.331L539.534 487.204L520.061 497.514L504.023 508.969L492.568 519.278L484.55 526.151L476.531 535.315L462.785 553.644L452.476 571.972L446.748 584.572L441.021 601.755L437.584 615.501L435.293 632.684V669.34L438.729 691.104L443.312 708.287L450.185 725.47L460.494 744.943L471.949 760.98L492.568 783.891L498.296 789.618L491.423 787.327L474.24 778.163L459.349 767.854L444.457 755.253L431.856 742.652L419.256 726.615L406.655 707.142L397.491 686.522L390.618 662.467L387.182 640.702V605.191L390.618 582.281L397.491 559.371L407.801 536.461L419.256 519.278L428.42 507.823L438.729 496.368L449.039 486.059L468.513 471.167L485.695 460.857L505.169 452.839L528.079 445.966L542.971 443.675L557.862 442.529L988.573 441.384L1199.35 230.61H1208.51V221.446L1226.84 203.118L1227.98 164.171H1273.8V140.115H1277.24V118.351Z" fill="#020202"/>
<path d="M1972.56 160.734H2034.42L2000.06 229.465L1988.6 251.229L1969.13 290.177L1957.67 311.941L1943.93 339.434L1932.47 361.198L1913 400.146L1901.54 421.91L1882.07 460.857L1870.61 482.622L1860.3 503.241L1817.92 522.715L1788.14 535.315L1757.21 547.916L1715.97 563.953L1672.44 579.99L1623.18 597.173L1560.18 617.792L1515.51 631.538H1510.92L1513.22 625.811L1534.98 582.281L1546.44 577.699L1587.67 563.953L1640.37 545.625L1682.75 529.588L1734.3 508.969L1766.37 495.223L1812.19 474.604L1831.67 436.802L1846.56 408.164L1872.91 355.471L1884.36 333.706L1903.83 294.759L1915.29 272.994L1929.04 245.502L1940.49 223.737L1959.96 184.79L1971.42 163.025L1972.56 160.734Z" fill="#010101"/>
<path d="M1108.85 882.404H1155.82V1121.82L1154.67 1122.96H607.119L567.026 1120.67L533.807 1116.09L502.878 1109.21L473.095 1100.05L449.039 1090.89L415.819 1074.85L394.055 1062.25L388.327 1056.52L398.637 1059.96L414.674 1066.83L449.039 1078.29L482.259 1086.3L514.333 1090.89L539.534 1093.18L1108.85 1094.32V882.404Z" fill="#050505"/>
<path d="M536.098 1420.79H546.407L565.881 1424.23L579.627 1429.96L592.228 1436.83L607.119 1450.58L616.283 1463.18L624.302 1480.36L627.738 1495.25V1522.74L623.156 1539.93L615.138 1555.96L605.974 1567.42L592.228 1580.02L576.19 1589.18L556.717 1594.91L538.389 1596.06L521.206 1593.76L502.878 1588.04L494.859 1586.89L453.621 1599.49H451.33L453.621 1588.04L463.931 1557.11L462.785 1549.09L455.912 1531.91L453.621 1520.45V1497.54L458.203 1479.21L462.785 1467.76L471.949 1454.01L482.259 1442.56L497.15 1432.25L512.042 1425.38L525.788 1421.94L536.098 1420.79Z" fill="#16AF33"/>
<path d="M1289.84 301.632H1336.81V366.926H1304.73L1321.92 401.291L1333.37 423.056L1362.01 480.331L1373.46 502.096L1402.1 559.371L1413.56 581.136L1441.05 636.12L1447.92 648.721V651.012L1397.52 664.758L1349.41 677.358L1280.68 694.541L1206.22 711.724L1194.76 712.869L1183.31 691.104L1178.73 681.94V678.504L1206.22 671.631L1278.39 654.448L1352.84 634.975L1398.67 622.374V618.938L1370.03 561.662L1358.57 539.897L1329.93 482.622L1318.48 460.857L1289.84 403.582L1278.39 381.817L1257.77 340.579V339.434H1289.84V301.632Z" fill="#010101"/>
<path d="M1107.71 882.404H1108.85V1094.32H539.534V1093.18L841.948 1092.03L843.094 1086.3L875.168 1069.12L885.478 1063.39L898.078 1056.52L914.115 1047.36L926.716 1040.48L961.081 1022.16L977.118 1012.99L1000.03 1000.39L1063.03 966.026L1092.81 949.989L1100.83 945.407L1106.56 946.553L1107.71 882.404Z" fill="#ACA7A7"/>
<path d="M1290.99 206.555H1357.43V234.047H1404.39V281.013H1418.14V309.65H1465.1V366.926H1406.68V339.434H1360.86L1359.72 338.288V300.486H1337.95L1336.81 272.994L1290.99 271.849V206.555Z" fill="#FDCE00"/>
<path d="M390.618 1644.17H411.237L429.565 1648.75L446.748 1657.91L460.494 1670.51L469.658 1683.11L476.531 1698.01L479.968 1712.9V1734.66L475.386 1752.99L467.367 1767.88L457.058 1780.48L444.457 1790.79L428.42 1798.81L415.819 1802.25L407.801 1803.39H394.055L375.727 1799.96L357.398 1790.79L347.089 1782.77L337.925 1773.61L329.906 1761.01L324.179 1747.26L320.742 1731.23V1715.19L325.324 1696.86L329.906 1685.41L339.07 1672.8L345.943 1664.79L361.98 1653.33L375.727 1647.6L390.618 1644.17ZM356.253 1686.55L344.798 1687.7L343.652 1689.99L349.38 1695.71L375.727 1709.46L395.2 1719.77L402.073 1720.92L412.383 1716.33L447.894 1698.01L457.058 1691.13V1687.7L454.767 1686.55H356.253ZM344.798 1706.02L343.652 1707.17V1755.28L348.234 1759.86L397.491 1761.01H429.565L453.621 1759.86L457.058 1756.43V1706.02L450.185 1708.32L418.11 1724.35L405.51 1731.23H396.346L368.854 1717.48L351.671 1708.32L344.798 1706.02Z" fill="#FDCE00"/>
<path d="M294.396 1176.8L296.687 1177.95L301.269 1188.25V1190.55H303.56V1183.67L305.851 1182.53L326.47 1226.06L341.361 1258.13L342.507 1259.28L363.126 1214.6L380.309 1176.8L382.6 1179.09L386.036 1192.84L390.618 1182.53L392.909 1185.96L405.51 1238.66L414.674 1279.9L421.547 1308.53V1313.12H402.073L400.928 1305.1H392.909L389.473 1294.79L380.309 1254.69L357.398 1300.51L349.38 1317.7L345.943 1314.26L341.361 1305.1L337.925 1309.68L328.761 1291.35L309.287 1251.26L304.705 1268.44L295.541 1310.82L294.396 1313.12H274.922L276.067 1306.24L265.758 1305.1L268.049 1291.35L292.104 1185.96L294.396 1176.8Z" fill="#001550"/>
<path d="M1691.92 782.745H1752.63L1753.77 810.237L1799.59 811.383L1800.74 845.748V873.24H1846.56L1847.7 874.386V919.061L1846.56 920.206H1800.74L1799.59 892.714H1754.92L1753.77 891.568V872.095H1738.88L1737.74 844.603H1713.68L1691.92 843.457V782.745Z" fill="#E2E0E0"/>
<path d="M679.286 1811.41H701.051L719.379 1815.99L736.562 1825.16L750.308 1837.76L759.472 1850.36L766.345 1865.25L769.781 1881.29V1900.76L765.199 1919.09L757.181 1935.13L744.58 1950.02L731.979 1959.18L714.797 1967.2L697.614 1970.64H683.868L665.54 1967.2L647.212 1958.04L636.902 1950.02L626.593 1939.71L617.429 1923.67L612.847 1911.07L610.556 1899.62V1882.43L613.992 1866.4L619.72 1852.65L627.738 1841.19L636.902 1830.88L651.794 1820.58L665.54 1814.85L679.286 1811.41ZM679.286 1838.9L662.104 1840.05L650.648 1844.63L642.63 1853.79L639.193 1865.25V1916.8L642.63 1928.25L649.503 1936.27L658.667 1940.85L663.249 1942H717.088L727.397 1938.56L736.562 1930.54L741.144 1919.09L742.289 1909.92V1876.71L741.144 1861.81L735.416 1850.36L729.688 1844.63L719.379 1840.05L703.342 1838.9H679.286Z" fill="#FDCF00"/>
<path d="M1544.14 447.111H1549.87L1561.33 467.73L1579.66 504.387L1595.69 535.315L1603.71 550.207L1602.57 558.226L1604.86 559.371L1554.45 576.554L1496.03 594.882L1466.25 604.046H1463.96L1466.25 597.173L1486.87 555.935L1498.32 534.17L1534.98 460.857L1541.85 448.257L1544.14 447.111Z" fill="#FDCE00"/>
<path d="M502.878 798.782H510.896L528.079 809.092L546.407 818.256L565.881 825.129V826.274L474.24 836.584L392.909 844.603L312.724 851.476L245.139 856.058L232.538 833.147L230.247 825.129L326.47 817.11L421.547 807.946L502.878 798.782Z" fill="#020202"/>
<path d="M1729.72 1181.38H1783.56L1797.3 1183.67L1813.34 1191.69L1828.23 1202L1837.39 1213.46L1843.12 1226.06L1846.56 1242.09V1258.13L1843.12 1274.17L1835.1 1290.21L1827.08 1299.37L1814.48 1307.39L1797.3 1311.97L1781.26 1313.12H1740.03V1305.1H1729.72V1181.38ZM1760.65 1206.58V1286.77H1780.12L1791.57 1284.48L1800.74 1278.75L1808.76 1269.59L1813.34 1258.13L1814.48 1252.4V1232.93L1809.9 1218.04L1804.17 1210.02L1798.45 1207.73L1791.57 1206.58H1760.65Z" fill="#001550"/>
<path d="M1443.34 1181.38H1497.18L1510.92 1183.67L1526.96 1191.69L1540.71 1200.86L1548.73 1210.02L1554.45 1220.33L1559.04 1235.22L1560.18 1243.24V1256.99L1556.75 1274.17L1552.16 1284.48L1544.14 1295.93L1533.83 1303.95L1524.67 1308.53L1510.92 1311.97L1494.89 1313.12H1453.65V1305.1H1444.49L1443.34 1302.81V1181.38ZM1474.27 1206.58V1286.77H1493.74L1505.2 1284.48L1514.36 1278.75L1522.38 1269.59L1526.96 1258.13L1528.11 1252.4V1234.08L1524.67 1220.33L1517.8 1210.02L1512.07 1207.73L1505.2 1206.58H1474.27Z" fill="#000923"/>
<path d="M1443 1181H1496.84L1510.58 1183.29L1526.62 1191.31L1540.37 1200.47L1548.39 1209.64L1554.11 1219.95L1558.7 1234.84L1559.84 1242.86V1256.6L1556.41 1273.79L1551.82 1284.1L1543.8 1295.55L1533.5 1303.57L1524.33 1308.15L1510.58 1311.59L1494.55 1312.73H1453.31V1304.71H1444.15L1443 1302.42V1181ZM1473.93 1206.2V1286.39H1493.4L1504.86 1284.1L1514.02 1278.37L1522.04 1269.2L1526.62 1257.75L1527.77 1252.02V1233.69L1524.33 1219.95L1517.46 1209.64L1511.73 1207.35L1504.86 1206.2H1473.93Z" fill="#001550"/>
<path d="M1230.28 66.8027H1262.35V89.7129H1277.24V117.205H1323.06V118.351H1277.24V140.115H1273.8V164.171H1272.66V140.115H1227.98V203.118L1161.54 201.973V158.443H1151.24V113.769H1195.91V136.679H1225.69V89.7129H1230.28V66.8027Z" fill="#FECE00"/>
<path d="M1010.34 1431.1H1025.23L1037.83 1433.39L1046.99 1437.98L1058.45 1448.29L1063.03 1457.45L1065.32 1468.9L1064.18 1481.5L1059.59 1490.67L1053.87 1496.4L1044.7 1502.12L1056.16 1509L1065.32 1519.31L1069.9 1533.05V1546.8L1066.47 1560.54L1059.59 1569.71L1051.58 1576.58L1042.41 1581.16L1033.25 1583.46L1022.94 1584.6H1012.63L994.301 1581.16L982.846 1575.44L977.118 1569.71L971.391 1562.84L966.809 1551.38V1530.76L971.391 1519.31L978.264 1510.14L986.282 1504.42L992.01 1503.27V1500.98L985.137 1498.69L978.264 1492.96L973.682 1486.09L971.391 1476.92V1464.32L974.827 1452.87L981.7 1443.7L990.864 1436.83L1003.46 1432.25L1010.34 1431.1ZM1011.48 1450.58L1002.32 1455.16L996.592 1462.03L995.446 1465.47V1475.78L1000.03 1484.94L1006.9 1489.52L1011.48 1490.67H1025.23L1033.25 1487.23L1038.98 1481.5L1041.27 1470.05L1038.98 1460.89L1033.25 1454.01L1025.23 1450.58H1011.48ZM1009.19 1513.58L997.737 1519.31L993.155 1525.03L989.719 1534.2V1543.36L993.155 1553.67L1002.32 1561.69L1013.77 1565.13L1028.67 1563.98L1037.83 1559.4L1043.56 1552.53L1045.85 1546.8V1531.91L1042.41 1523.89L1036.68 1518.16L1030.96 1514.72L1026.38 1513.58H1009.19Z" fill="#001550"/>
<path d="M450.185 1181.38H469.658L470.804 1187.11L479.968 1188.25L481.113 1268.44L484.55 1282.19L486.841 1286.77L494.859 1289.06H506.314L517.77 1285.62L524.643 1279.9L529.225 1270.73L530.37 1265L531.516 1181.38H552.135V1188.25H562.444V1274.17L559.008 1289.06L553.28 1299.37L545.262 1307.39L533.807 1313.12L524.643 1315.41H497.15L482.259 1310.82L473.095 1305.1V1302.81L467.367 1300.51L459.349 1293.64L452.476 1281.04L450.185 1270.73V1181.38Z" fill="#001550"/>
<path d="M536.098 1420.79H546.407L565.881 1424.23L579.627 1429.96L592.228 1436.83L607.119 1450.58L616.283 1463.18L624.302 1480.36L627.738 1495.25V1522.74L623.156 1539.93L615.138 1555.96L605.974 1567.42L592.228 1580.02L576.19 1589.18L556.717 1594.91L538.389 1596.06L521.206 1593.76L502.878 1588.04L494.859 1586.89L453.621 1599.49H451.33L453.621 1588.04L463.931 1557.11L462.785 1549.09L455.912 1531.91L453.621 1520.45V1497.54L458.203 1479.21L462.785 1467.76L471.949 1454.01L482.259 1442.56L497.15 1432.25L512.042 1425.38L525.788 1421.94L536.098 1420.79ZM532.661 1435.68L514.333 1440.27L500.587 1447.14L486.841 1458.59L477.677 1471.2L470.804 1488.38L468.513 1502.12V1513.58L471.949 1531.91L479.968 1547.94L478.822 1558.25L474.24 1573.15V1575.44L484.55 1573.15L499.441 1568.56L505.169 1570.85L518.915 1576.58L534.952 1580.02H545.262L559.008 1577.73L576.19 1570.85L591.082 1559.4L601.392 1546.8L608.265 1533.05L611.701 1519.31V1495.25L608.265 1482.65L600.246 1466.61L586.5 1451.72L573.899 1443.7L560.153 1437.98L548.698 1435.68H532.661Z" fill="#FAFAFA"/>
<path d="M1145.51 1181.38H1189.04L1200.49 1184.82L1210.8 1191.69L1218.82 1197.42L1224.55 1207.73L1226.84 1215.75V1229.49L1223.4 1240.95L1215.38 1250.11L1206.22 1254.69L1199.35 1255.84L1215.38 1277.6L1231.42 1298.22L1240.58 1310.82V1313.12H1217.67L1213.09 1307.39V1305.1H1207.37L1189.04 1281.04L1176.44 1263.86L1175.29 1311.97L1174.15 1313.12H1155.82L1154.67 1311.97V1305.1H1145.51V1181.38ZM1176.44 1205.44L1175.29 1207.73L1176.44 1234.08L1187.89 1231.78L1193.62 1227.2L1195.91 1220.33L1194.76 1208.87L1193.62 1206.58L1186.75 1205.44H1176.44Z" fill="#001550"/>
<path d="M1616.31 1431.1H1631.2L1643.8 1434.54L1655.26 1441.41L1663.28 1450.58L1672.44 1468.9L1677.02 1491.81V1525.03L1672.44 1546.8L1664.42 1562.84L1654.11 1574.29L1646.09 1580.02L1635.79 1583.46L1628.91 1584.6H1616.31L1602.57 1581.16L1589.96 1573.15L1580.8 1561.69L1575.07 1550.24L1571.64 1539.93L1569.35 1526.18L1568.2 1506.71L1569.35 1488.38L1572.78 1472.34L1578.51 1457.45L1588.82 1443.7L1600.27 1435.68L1609.44 1432.25L1616.31 1431.1ZM1617.46 1451.72L1608.29 1456.3L1600.27 1465.47L1595.69 1478.07L1593.4 1492.96V1522.74L1596.84 1541.07L1603.71 1554.82L1611.73 1561.69L1619.75 1563.98L1631.2 1562.84L1641.51 1555.96L1647.24 1545.65L1650.68 1535.34L1652.97 1514.72V1500.98L1650.68 1480.36L1646.09 1466.61L1639.22 1457.45L1632.35 1452.87L1628.91 1451.72H1617.46Z" fill="#001550"/>
<path d="M1177.58 804.51L1182.16 806.801L1191.33 825.129L1197.06 837.729L1173 842.312L1107.71 852.621L1096.25 853.767H828.202V852.621L920.988 842.312L1008.05 830.856L1087.09 819.401L1170.71 805.655L1177.58 804.51Z" fill="black"/>
<path d="M1051.58 1176.8L1055.01 1181.38L1058.45 1188.25L1060.74 1183.67H1063.03L1082.5 1224.91L1112.29 1289.06L1122.6 1311.97L1121.45 1313.12H1100.83L1097.4 1307.39V1305.1H1090.52L1082.5 1287.91L1080.21 1281.04H1036.68L1033.25 1291.35L1024.08 1311.97L1022.94 1313.12H1002.32L1003.46 1306.24L992.01 1305.1L994.301 1298.22L1012.63 1259.28L1029.81 1221.47L1050.43 1177.95L1051.58 1176.8ZM1058.45 1234.08L1050.43 1250.11L1049.29 1255.84H1068.76L1065.32 1245.53L1059.59 1234.08H1058.45Z" fill="#001550"/>
<path d="M1634.64 1176.8L1638.08 1180.24L1641.51 1187.11L1646.09 1183.67L1655.26 1202L1675.88 1245.53L1689.62 1275.31L1705.66 1309.68V1313.12H1685.04L1680.46 1306.24L1673.59 1305.1L1664.42 1283.33V1281.04H1620.89L1617.46 1291.35L1607.15 1313.12H1585.38L1587.67 1305.1H1576.22L1579.66 1294.79L1600.27 1251.26L1630.06 1187.11L1634.64 1176.8ZM1641.51 1234.08L1632.35 1254.69V1255.84H1652.97L1643.8 1234.08H1641.51Z" fill="#001550"/>
<path d="M1882.07 1181.38H1950.8L1951.95 1187.11L1961.11 1188.25V1205.44L1913 1206.58V1228.35L1950.8 1229.49L1951.95 1235.22L1961.11 1236.37V1254.69H1911.85V1286.77H1950.8V1293.64H1961.11V1313.12H1891.23V1305.1H1882.07V1181.38Z" fill="#001550"/>
<path d="M1328.79 1181.38H1397.52L1398.67 1187.11L1407.83 1188.25V1205.44L1359.72 1206.58V1228.35L1397.52 1229.49L1398.67 1235.22L1407.83 1236.37V1254.69H1358.57V1286.77H1397.52V1293.64H1407.83V1313.12H1337.95V1305.1H1328.79V1181.38Z" fill="#001550"/>
<path d="M1702.22 868.658H1703.37V901.878H1718.26V930.516H1765.23V990.082L1764.08 991.228H1703.37V962.59H1656.4L1655.26 958.008L1656.4 901.878H1702.22V868.658Z" fill="#C3C0C0"/>
<path d="M900.369 1431.1H914.115L929.007 1434.54L940.462 1441.41L950.771 1452.87L955.354 1463.18L957.645 1478.07L956.499 1490.67L951.917 1504.42L939.316 1528.47L920.988 1554.82L906.097 1575.44L895.787 1589.18L890.06 1588.04L877.459 1581.16L879.75 1575.44L917.552 1527.33L904.951 1529.62L888.914 1528.47L876.313 1523.89L864.858 1514.72L857.985 1503.27L854.549 1494.11L853.403 1480.36L855.694 1465.47L860.276 1455.16L864.858 1448.29L875.168 1439.12L884.332 1434.54L900.369 1431.1ZM901.515 1450.58L891.205 1454.01L882.041 1462.03L878.604 1470.05L877.459 1475.78V1484.94L880.896 1496.4L888.914 1505.56L900.369 1510.14H910.679L919.843 1506.71L929.007 1498.69L933.589 1487.23V1473.49L930.152 1463.18L924.425 1456.3L916.406 1451.72L911.824 1450.58H901.515Z" fill="#001550"/>
<path d="M386.036 883.55H395.2L391.764 885.841L376.872 888.132L358.544 897.296L336.779 908.751L327.615 914.479L316.16 920.206L289.813 935.098L272.631 944.262L260.03 951.135V958.008L266.903 966.026L262.321 963.735L249.721 951.135L239.411 938.534L230.247 927.079L222.229 916.77L105.387 915.624L71.0215 914.479V913.333L142.043 911.042L213.064 907.605L215.355 906.46L203.9 889.277V888.132L214.21 886.986L292.104 885.841L386.036 883.55Z" fill="#FDFDFD"/>
<path d="M2026.4 1177.95H2036.71L2050.46 1181.38L2060.77 1188.25L2068.79 1192.84L2075.66 1202L2076.81 1206.58L2060.77 1214.6L2055.04 1207.73L2047.02 1204.29H2036.71L2029.84 1207.73L2026.4 1213.46V1221.47L2029.84 1227.2L2039 1232.93L2057.33 1243.24L2069.93 1252.4L2075.66 1258.13L2080.24 1267.29L2081.39 1279.9L2079.1 1291.35L2073.37 1301.66L2063.06 1310.82L2050.46 1315.41H2027.55L2016.09 1310.82L2003.49 1301.66L1997.77 1297.08L1990.89 1285.62L1989.75 1279.9L2004.64 1273.02L2008.08 1276.46L2011.51 1281.04L2017.24 1279.9L2020.68 1287.91L2033.28 1289.06L2042.44 1285.62L2047.02 1279.9L2048.17 1277.6V1266.15L2042.44 1260.42L2020.68 1248.97L2004.64 1236.37L1996.62 1227.2L1993.18 1215.75L1994.33 1202L2000.06 1190.55L2008.08 1183.67L2019.53 1179.09L2026.4 1177.95Z" fill="#001550"/>
<path d="M1836.25 1431.1H1852.29L1866.03 1434.54L1872.91 1437.98L1883.21 1447.14L1887.8 1456.3L1890.09 1471.2L1887.8 1483.8L1883.21 1492.96L1875.2 1499.83L1870.61 1502.12H1866.03V1504.42L1872.91 1505.56L1883.21 1512.43L1890.09 1522.74L1892.38 1530.76V1551.38L1888.94 1560.54L1884.36 1567.42L1876.34 1575.44L1864.89 1581.16L1855.72 1583.46L1836.25 1584.6L1822.5 1582.31L1808.76 1575.44L1801.88 1569.71L1795.01 1558.25L1791.57 1544.51V1541.07H1815.63L1817.92 1552.53L1822.5 1558.25L1831.67 1562.84L1843.12 1563.98L1855.72 1561.69L1862.6 1557.11L1867.18 1551.38L1869.47 1542.22L1868.32 1528.47L1862.6 1519.31L1854.58 1514.72L1841.98 1512.43H1836.25L1835.1 1511.29V1492.96L1851.14 1490.67L1860.3 1486.09L1864.89 1478.07V1464.32L1860.3 1456.3L1851.14 1451.72H1836.25L1825.94 1456.3L1821.36 1465.47L1820.21 1470.05H1798.45V1462.03L1801.88 1451.72L1809.9 1441.41L1821.36 1434.54L1836.25 1431.1Z" fill="#001550"/>
<path d="M1721.7 1431.1H1736.59L1751.48 1434.54L1762.94 1441.41L1770.96 1450.58L1775.54 1462.03V1481.5L1770.96 1496.4L1759.5 1514.72L1732.01 1546.8L1720.55 1559.4V1560.54L1776.68 1561.69V1580.02H1675.88L1682.75 1570.85L1697.64 1553.67L1710.24 1538.78L1723.99 1522.74L1738.88 1504.42L1748.04 1488.38L1750.34 1481.5V1468.9L1745.75 1459.74L1740.03 1455.16L1733.15 1452.87H1721.7L1712.53 1456.3L1705.66 1464.32L1702.22 1474.63H1679.31V1464.32L1682.75 1455.16L1689.62 1444.85L1698.79 1437.98L1707.95 1433.39L1721.7 1431.1Z" fill="#001550"/>
<path d="M1116.87 1431.1H1131.76L1146.65 1434.54L1158.11 1441.41L1166.13 1450.58L1170.71 1462.03V1481.5L1166.13 1496.4L1156.96 1511.29L1144.36 1527.33L1132.91 1539.93L1122.6 1552.53L1115.72 1560.54L1171.85 1561.69V1580.02H1071.05L1077.92 1570.85L1092.81 1553.67L1120.31 1521.6L1132.91 1505.56L1140.93 1492.96L1145.51 1481.5V1468.9L1140.93 1459.74L1135.2 1455.16L1128.33 1452.87H1116.87L1107.71 1456.3L1100.83 1464.32L1097.4 1474.63H1074.49V1464.32L1077.92 1455.16L1084.8 1444.85L1093.96 1437.98L1104.27 1433.39L1116.87 1431.1Z" fill="#001550"/>
<path d="M866.004 1181.38H886.623L890.06 1187.11L898.078 1189.4L909.533 1216.89L922.134 1246.68L924.425 1252.4L941.607 1212.31L954.208 1182.53L955.354 1181.38H975.973L973.682 1188.25H986.282L983.991 1195.13L935.88 1307.39L931.298 1317.7L927.861 1313.12L924.425 1303.95L920.988 1309.68L918.697 1306.24L895.787 1253.55L882.041 1221.47L866.004 1183.67V1181.38Z" fill="#001550"/>
<path d="M1403.25 234.047H1404.39V281.013H1418.14V309.65H1465.1V366.926H1406.68V339.434H1360.86L1359.72 338.288V282.158L1360.86 281.013H1403.25V234.047Z" fill="#FCCE02"/>
<path d="M1268.08 1431.1H1274.95V1534.2H1293.28V1550.24H1274.95V1580.02H1252.04V1550.24H1181.02L1183.31 1545.65L1198.2 1525.03L1262.35 1437.98L1268.08 1431.1ZM1250.89 1482.65L1221.11 1523.89L1215.38 1531.91V1534.2H1252.04L1253.19 1482.65H1250.89Z" fill="#001550"/>
<path d="M1594.55 966.026H1648.39L1649.53 971.754V993.519L1695.35 994.664V1047.36L1694.21 1048.5H1642.66L1641.51 1047.36V1019.87H1594.55V966.026Z" fill="#E2E0E0"/>
<path d="M685.014 1181.38H770.927V1188.25H781.236V1205.44H748.017V1313.12H727.397V1305.1H717.088V1205.44H694.178V1198.56H685.014V1181.38Z" fill="#001550"/>
<path d="M1463.96 1433.39H1565.91L1567.05 1435.68L1492.6 1584.6L1489.16 1585.75L1471.98 1577.73L1474.27 1570.85L1499.47 1519.31L1532.69 1452.87H1462.81V1434.54L1463.96 1433.39Z" fill="#001550"/>
<path d="M1304.73 1433.39H1406.68L1407.83 1435.68L1333.37 1584.6L1329.93 1585.75L1312.75 1577.73L1315.04 1570.85L1334.52 1531.91L1347.12 1505.56L1373.46 1452.87H1304.73L1303.59 1434.54L1304.73 1433.39Z" fill="#001550"/>
<path d="M602.537 1181.38H623.156V1188.25H633.466V1286.77H667.831V1293.64H678.141V1313.12H612.847L611.701 1311.97V1305.1H602.537V1181.38Z" fill="#001550"/>
<path d="M1753.77 844.603H1799.59L1800.74 845.748V873.24H1846.56L1847.7 874.386V919.061L1846.56 920.206H1800.74L1799.59 892.714H1754.92L1753.77 891.568L1752.63 860.64V845.748L1753.77 844.603Z" fill="#E4E2E2"/>
<path d="M674.704 1848.07H704.487L721.67 1850.36L728.543 1856.09L731.979 1864.1L733.125 1874.41L731.979 1917.94L727.397 1927.11L715.942 1932.83H665.54L656.376 1929.4L650.648 1923.67L648.357 1915.65V1866.4L651.794 1856.09L657.521 1851.5L663.249 1849.21L674.704 1848.07ZM714.797 1857.23L711.36 1860.67L712.506 1867.54L718.233 1869.83L722.815 1867.54L723.961 1860.67L720.524 1857.23H714.797ZM686.159 1864.1L675.85 1867.54L667.831 1875.56L664.395 1882.43L663.249 1893.89L666.686 1904.2L673.559 1912.22L682.723 1916.8H697.614L706.778 1912.22L713.651 1904.2L715.942 1898.47V1883.58L711.36 1874.41L702.196 1866.4L694.178 1864.1H686.159Z" fill="#FDCE00"/>
<path d="M754.89 1433.39H809.874V1449.43H765.199L762.908 1460.89L759.472 1473.49L772.072 1471.2H781.236L794.982 1474.63L801.855 1479.21L807.583 1484.94L813.311 1494.11L815.602 1504.42V1515.87L812.165 1529.62L803.001 1542.22L794.982 1547.94L781.236 1552.53H758.326L746.871 1549.09L737.707 1542.22L733.125 1537.63L734.271 1533.05L742.289 1525.03L743.435 1522.74L748.017 1525.03L752.599 1530.76L760.617 1535.34L765.199 1536.49H775.509L784.673 1533.05L791.546 1527.33L794.982 1520.45L796.128 1514.72V1506.71L792.691 1496.4L783.527 1488.38L776.654 1486.09H760.617L749.162 1490.67L744.58 1494.11L738.853 1492.96L752.599 1436.83L754.89 1433.39Z" fill="#001550"/>
<path d="M808.729 1181.38H829.348L830.493 1187.11H839.657V1313.12H819.038V1305.1H808.729V1181.38Z" fill="#001550"/>
<path d="M1266.93 1181.38H1287.55V1188.25H1297.86V1311.97L1296.71 1313.12H1277.24L1276.1 1306.24L1266.93 1305.1V1181.38Z" fill="#001550"/>
<path d="M1230.28 66.8027H1262.35V89.7129H1277.24V117.205H1323.06V118.351H1277.24V140.115H1273.8V164.171H1272.66V140.115H1226.84V149.279L1221.11 145.843L1216.53 140.115V137.824H1207.37V136.679H1225.69V89.7129H1230.28V66.8027Z" fill="#F4EE07"/>
<path d="M1718.26 930.516H1765.23V990.082L1764.08 991.228H1703.37V963.735L1704.52 962.59H1718.26V930.516Z" fill="#030303"/>
<path d="M658.667 1433.39H729.688L730.834 1435.68L704.487 1488.38L693.032 1512.43L681.577 1534.2L671.268 1553.67L665.54 1552.53L658.667 1549.09L657.521 1547.94L658.667 1539.93L674.704 1507.85L687.305 1481.5L703.342 1449.43H658.667L657.521 1448.29V1434.54L658.667 1433.39Z" fill="#001550"/>
<path d="M1418.14 309.65H1465.1V366.926H1407.83V339.434H1418.14V309.65Z" fill="black"/>
<path d="M846.53 1849.21H869.44L880.896 1852.65L890.06 1859.52L896.933 1867.54L900.369 1876.71V1891.6L895.787 1901.91L887.769 1911.07L879.75 1915.65L871.731 1916.8L864.858 1914.51L862.567 1912.22V1908.78H860.276L859.131 1912.22L853.403 1915.65H840.803L833.93 1911.07L831.639 1906.49V1891.6L837.366 1880.14L845.385 1873.27L848.821 1872.12H860.276L868.295 1877.85L869.44 1873.27H877.459L872.877 1893.89L870.586 1906.49L871.731 1907.63H878.604L886.623 1900.76L891.205 1890.45V1877.85L885.478 1866.4L875.168 1859.52L868.295 1857.23H848.821L836.221 1861.81L829.348 1867.54H827.057L819.038 1883.58L817.893 1888.16V1904.2L822.475 1914.51L828.202 1921.38L839.657 1927.11L855.694 1929.4L874.022 1925.96L883.187 1921.38H886.623L887.769 1925.96L879.75 1931.69L866.004 1936.27H844.239L829.348 1931.69L819.038 1923.67L812.165 1914.51L808.729 1905.34V1887.01L813.311 1874.41L820.184 1864.1L831.639 1854.94L846.53 1849.21ZM853.403 1877.85L846.53 1881.29L840.803 1891.6V1905.34L845.385 1909.92H852.258L859.131 1905.34L862.567 1898.47L864.858 1889.31L863.713 1882.43L860.276 1879L853.403 1877.85Z" fill="#001550"/>
<path d="M1396.37 1681.97H1416.99L1429.59 1685.41L1438.76 1692.28L1445.63 1700.3L1449.07 1711.75V1720.92L1445.63 1732.37L1441.05 1739.24L1433.03 1746.12L1428.45 1748.41H1414.7L1411.27 1744.97V1741.54L1404.39 1747.26L1400.96 1748.41H1388.36L1381.48 1742.68L1380.34 1739.24V1724.35L1383.77 1716.33L1391.79 1707.17L1397.52 1704.88H1407.83L1413.56 1708.32L1415.85 1709.46L1418.14 1706.02H1425.01L1423.87 1716.33L1419.28 1734.66V1741.54L1429.59 1739.24L1436.47 1731.23L1439.9 1720.92V1712.9L1436.47 1702.59L1431.88 1696.86L1420.43 1691.13L1415.85 1689.99H1397.52L1384.92 1694.57L1375.75 1701.44L1368.88 1712.9L1366.59 1719.77V1736.95L1371.17 1748.41L1380.34 1756.43L1391.79 1761.01L1405.54 1762.15L1419.28 1759.86L1431.88 1754.14L1436.47 1756.43L1434.18 1761.01L1422.72 1766.74L1414.7 1769.03L1403.25 1770.17L1386.06 1767.88L1372.32 1761.01L1363.15 1751.84L1358.57 1742.68L1357.43 1738.1V1718.62L1362.01 1706.02L1370.03 1695.71L1380.34 1687.7L1391.79 1683.11L1396.37 1681.97ZM1400.96 1710.61L1394.08 1715.19L1389.5 1724.35V1738.1L1394.08 1742.68H1400.96L1406.68 1739.24L1411.27 1731.23L1413.56 1718.62L1410.12 1712.9L1406.68 1710.61H1400.96Z" fill="#001550"/>
<path d="M507.46 1466.61H515.479L518.915 1470.05L525.788 1487.23L524.643 1495.25L520.061 1499.83L521.206 1507.85L531.516 1519.31L540.68 1527.33L549.844 1530.76L559.008 1522.74L562.444 1520.45L580.772 1529.62L584.209 1531.91V1539.93L579.627 1547.94L572.754 1552.53L569.317 1553.67H556.717L540.68 1547.94L529.225 1541.07L515.479 1529.62L506.314 1518.16L498.296 1504.42L494.859 1492.96V1483.8L499.441 1473.49L505.169 1467.76L507.46 1466.61Z" fill="#F7F7F7"/>
<path d="M1357.43 234.047H1403.25V281.013L1360.86 282.158L1359.72 300.486H1337.95V271.849H1357.43V234.047Z" fill="black"/>
<path d="M1648.39 994.664H1695.35V1047.36L1694.21 1048.5H1642.66L1641.51 1047.36V1021.01L1642.66 1019.87H1648.39V994.664Z" fill="#030303"/>
<path d="M1741.17 664.758L1744.61 665.903L1725.13 703.705L1709.1 735.779L1697.64 757.544L1691.92 768.999L1688.48 767.854L1687.33 765.562L1686.19 683.086L1732.01 668.194L1741.17 664.758Z" fill="#ACA7A7"/>
<path d="M1800.74 874.386H1847.7V919.061L1846.56 920.206H1800.74V874.386Z" fill="#040303"/>
<path d="M1293.28 206.555H1357.43V271.849H1350.55L1349.41 266.121L1334.52 250.084L1326.5 240.92L1310.46 223.737L1302.44 214.573L1297.86 208.846L1293.28 206.555Z" fill="#F8F100"/>
<path d="M1104.27 85.1309H1148.94V129.806H1104.27V85.1309Z" fill="#FDCE00"/>
<path d="M1752.63 811.383H1799.59V844.603L1753.77 845.748V872.095H1738.88V844.603L1740.03 843.457H1752.63V811.383Z" fill="black"/>
<path d="M550.989 1181.38H552.135V1188.25H562.444V1274.17L559.008 1289.06L553.28 1299.37L545.262 1307.39L533.807 1313.12L524.643 1315.41H497.15L482.259 1310.82L473.095 1305.1L474.24 1302.81L486.841 1306.24L501.732 1307.39L520.061 1305.1L531.516 1300.51L539.534 1294.79L546.407 1283.33L549.844 1270.73L550.989 1181.38Z" fill="#000923"/>
<path d="M1027.52 1873.27H1040.12L1046.99 1877.85L1048.14 1880.14L1052.72 1877.85L1057.3 1874.41L1060.74 1873.27H1072.2L1079.07 1877.85L1081.36 1881.29V1921.38H1071.05L1069.9 1890.45L1066.47 1883.58H1056.16L1052.72 1887.01L1051.58 1890.45L1050.43 1921.38H1038.98L1037.83 1890.45L1034.39 1883.58H1025.23L1019.5 1889.31L1018.36 1921.38H1006.9V1874.41H1017.21L1018.36 1880.14L1025.23 1874.41L1027.52 1873.27Z" fill="#001550"/>
<path d="M1633.49 1706.02H1643.8L1650.68 1709.46L1654.11 1714.04L1662.13 1707.17L1665.57 1706.02H1675.88L1682.75 1709.46L1686.19 1714.04V1754.14H1675.88L1674.73 1725.5L1672.44 1717.48L1671.3 1716.33H1662.13L1657.55 1719.77L1656.4 1723.21L1655.26 1754.14H1643.8L1642.66 1723.21L1639.22 1716.33H1630.06L1624.33 1722.06L1623.18 1754.14H1611.73V1707.17H1622.04L1623.18 1712.9L1630.06 1707.17L1633.49 1706.02Z" fill="#001550"/>
<path d="M1872.91 82.8398L1921.02 86.2764L1950.8 89.7129L1988.6 102.313L2020.68 114.914L2048.17 127.515L2074.51 141.261L2092.84 152.716L2093.99 155.007L2083.68 151.57L2055.04 138.97L2011.51 122.933L1982.87 113.769L1934.76 100.022L1899.25 90.8584L1872.91 83.9854V82.8398Z" fill="#070707"/>
<path d="M1971.42 1706.02H1982.87L1988.6 1709.46L1990.89 1714.04H1994.33L1995.47 1710.61L2004.64 1706.02H2014.95L2020.68 1709.46L2024.11 1712.9L2025.26 1716.33V1754.14H2013.8L2012.66 1720.92L2009.22 1716.33H2000.06L1996.62 1718.62L1994.33 1726.64L1993.18 1754.14H1981.73L1980.58 1720.92L1979.44 1716.33H1969.13L1964.55 1718.62L1962.25 1724.35L1961.11 1754.14H1950.8V1707.17H1959.96V1714.04L1969.13 1707.17L1971.42 1706.02Z" fill="#001550"/>
<path d="M641.484 1706.02H652.939L658.667 1709.46L663.249 1714.04L668.977 1708.32L674.704 1706.02H685.014L691.887 1709.46L695.323 1716.33V1754.14H683.868L682.723 1720.92L681.577 1717.48L679.286 1716.33H670.122L666.686 1718.62L664.395 1727.79L663.249 1754.14H652.939L651.794 1730.08L649.503 1716.33H639.193L634.611 1718.62L632.32 1724.35L631.175 1754.14H620.865V1707.17H630.029L632.32 1712.9L636.902 1708.32L641.484 1706.02Z" fill="#001550"/>
<path d="M1816.78 1195.13L1822.5 1197.42L1830.52 1204.29L1837.39 1213.46L1843.12 1226.06L1846.56 1242.09V1258.13L1843.12 1274.17L1835.1 1290.21L1827.08 1299.37L1814.48 1307.39L1797.3 1311.97L1781.26 1313.12H1740.03V1305.1L1776.68 1303.95L1795.01 1301.66L1808.76 1295.93L1819.07 1287.91L1827.08 1276.46L1831.67 1265L1833.96 1254.69V1231.78L1830.52 1218.04L1825.94 1207.73L1819.07 1198.56L1816.78 1195.13Z" fill="#000923"/>
<path d="M1531.54 1196.27L1537.27 1198.56L1545.29 1205.44L1553.31 1216.89L1559.04 1235.22L1560.18 1243.24V1256.99L1556.75 1274.17L1552.16 1284.48L1544.14 1295.93L1533.83 1303.95L1524.67 1308.53L1510.92 1311.97L1494.89 1313.12H1453.65V1305.1L1490.31 1303.95L1508.63 1301.66L1522.38 1295.93L1532.69 1287.91L1540.71 1276.46L1545.29 1266.15L1547.58 1253.55V1231.78L1543 1213.46L1534.98 1200.86L1531.54 1196.27Z" fill="#000923"/>
<path d="M1703.37 901.878H1718.26V929.37L1715.97 933.952H1658.7L1657.55 936.243V903.023L1703.37 901.878Z" fill="#E3E1E1"/>
<path d="M1691.92 807.946H1693.06V813.674H1750.34L1752.63 815.965V843.457L1737.74 844.603H1713.68L1691.92 843.457V807.946Z" fill="#C4C1C1"/>
<path d="M1501.76 1844.63H1513.22V1921.38H1501.76L1500.62 1917.94L1494.89 1922.53L1491.45 1923.67H1481.14L1471.98 1919.09L1466.25 1909.92L1465.1 1905.34V1891.6L1468.54 1882.43L1473.12 1876.71L1480 1873.27H1491.45L1498.32 1876.71L1500.62 1879L1501.76 1844.63ZM1485.72 1882.43L1478.85 1887.01L1476.56 1891.6V1905.34L1480 1911.07L1486.87 1914.51L1494.89 1913.36L1500.62 1907.63L1501.76 1905.34V1891.6L1498.32 1885.87L1492.6 1882.43H1485.72Z" fill="#001550"/>
<path d="M1233.71 1677.39H1244.02L1245.17 1678.53V1754.14H1233.71L1232.57 1750.7L1226.84 1755.28L1223.4 1756.43H1213.09L1203.93 1751.84L1199.35 1746.12L1197.06 1738.1V1724.35L1201.64 1712.9L1207.37 1708.32L1213.09 1706.02H1223.4L1230.28 1709.46L1232.57 1711.75L1233.71 1677.39ZM1218.82 1715.19L1211.95 1718.62L1208.51 1724.35V1738.1L1211.95 1743.83L1217.67 1747.26L1226.84 1746.12L1232.57 1740.39L1233.71 1738.1V1724.35L1230.28 1718.62L1224.55 1715.19H1218.82Z" fill="#001550"/>
<path d="M1815.63 757.544H1855.72L1856.87 759.835V798.782L1855.72 799.928H1815.63L1814.48 798.782V758.689L1815.63 757.544Z" fill="#0D0D0D"/>
<path d="M1772.1 728.906L1808.76 730.052L1809.9 731.197V770.145L1808.76 771.29H1767.52V730.052L1772.1 728.906Z" fill="#E3E1E1"/>
<path d="M1620.89 1844.63H1631.2V1921.38H1620.89V1916.8L1612.88 1922.53L1609.44 1923.67H1599.13L1592.26 1920.23L1586.53 1914.51L1584.24 1908.78L1583.09 1895.03L1585.38 1885.87L1589.96 1879L1595.69 1874.41L1599.13 1873.27H1610.58L1617.46 1877.85L1619.75 1880.14L1620.89 1844.63ZM1604.86 1882.43L1599.13 1885.87L1595.69 1890.45L1594.55 1893.89V1903.05L1597.98 1911.07L1604.86 1914.51L1612.88 1913.36L1618.6 1908.78L1620.89 1901.91V1893.89L1616.31 1884.72L1611.73 1882.43H1604.86Z" fill="#001550"/>
<path d="M1115.72 1677.39H1126.03V1754.14H1115.72V1749.55H1113.43L1112.29 1752.99L1105.42 1756.43H1093.96L1087.09 1752.99L1081.36 1746.12L1079.07 1741.54L1077.92 1727.79L1081.36 1716.33L1088.23 1708.32L1093.96 1706.02H1104.27L1111.14 1709.46L1114.58 1712.9L1115.72 1677.39ZM1099.69 1715.19L1093.96 1718.62L1090.52 1723.21L1089.38 1727.79V1735.81L1093.96 1744.97L1099.69 1747.26L1108.85 1746.12L1114.58 1739.24L1115.72 1735.81V1726.64L1112.29 1718.62L1105.42 1715.19H1099.69Z" fill="#001550"/>
<path d="M972.536 1187.11L986.282 1188.25L983.991 1195.13L935.88 1307.39L931.298 1317.7L927.861 1313.12L923.279 1301.66L949.626 1240.95L966.809 1200.86L972.536 1187.11Z" fill="#000923"/>
<path d="M769.781 1181.38H770.927V1188.25H781.236V1205.44H748.017V1313.12H727.397V1305.1H737.707V1197.42H769.781V1181.38Z" fill="#000923"/>
<path d="M1403.25 234.047H1404.39V281.013H1418.14V333.706L1416.99 338.288H1414.7L1407.83 329.124L1395.23 315.378L1387.21 306.214L1372.32 290.177L1366.59 282.158H1403.25V234.047Z" fill="#F5EF05"/>
<path d="M1286.41 1181.38H1287.55V1188.25H1297.86V1311.97L1296.71 1313.12H1277.24L1276.1 1305.1H1286.41V1181.38Z" fill="#000923"/>
<path d="M1217.67 797.637H1223.4L1217.67 802.219V866.367L1223.4 884.695L1227.98 892.714V895.005H1225.69L1210.8 865.222L1199.35 843.457L1179.87 804.51L1217.67 797.637Z" fill="#FCFCFC"/>
<path d="M1713.68 1706.02H1723.99L1730.86 1709.46L1733.15 1711.75L1735.44 1707.17H1744.61L1745.75 1708.32V1754.14H1734.3L1733.15 1750.7L1727.43 1755.28L1723.99 1756.43H1713.68L1704.52 1751.84L1699.93 1746.12L1697.64 1739.24V1723.21L1703.37 1711.75L1710.24 1707.17L1713.68 1706.02ZM1719.41 1715.19L1712.53 1718.62L1709.1 1724.35V1738.1L1713.68 1744.97L1718.26 1747.26H1725.13L1732.01 1742.68L1734.3 1738.1V1723.21L1728.57 1716.33L1719.41 1715.19Z" fill="#001550"/>
<path d="M1153.53 1706.02H1163.84L1170.71 1709.46L1173 1711.75L1175.29 1707.17H1184.46L1185.6 1708.32V1754.14H1174.15L1173 1750.7L1167.27 1755.28L1163.84 1756.43H1153.53L1144.36 1751.84L1138.63 1742.68L1137.49 1738.1V1724.35L1140.93 1715.19L1150.09 1707.17L1153.53 1706.02ZM1159.25 1715.19L1152.38 1718.62L1148.94 1725.5V1736.95L1152.38 1743.83L1158.11 1747.26H1164.98L1171.85 1742.68L1175.29 1734.66L1174.15 1723.21L1168.42 1716.33L1159.25 1715.19Z" fill="#001550"/>
<path d="M1461.67 1677.39H1470.83L1471.98 1679.68L1470.83 1714.04L1480 1707.17L1483.43 1706.02H1494.89L1500.62 1708.32L1506.34 1715.19V1754.14H1496.03L1494.89 1724.35L1492.6 1717.48L1490.31 1716.33H1481.14L1475.41 1719.77L1473.12 1724.35L1471.98 1754.14H1461.67V1677.39Z" fill="#001550"/>
<path d="M1594.55 966.026H1648.39L1649.53 971.754L1648.39 988.937L1642.66 992.373H1599.13L1596.84 991.228L1595.69 1019.87H1594.55V966.026Z" fill="#C4C1C1"/>
<path d="M914.115 1706.02H924.425L931.298 1709.46L933.589 1711.75L935.88 1707.17H946.189V1754.14H934.734L933.589 1750.7L927.861 1755.28L924.425 1756.43H914.115L907.242 1752.99L900.369 1744.97L898.078 1735.81V1726.64L901.515 1716.33L908.388 1708.32L914.115 1706.02ZM919.843 1715.19L914.115 1718.62L910.679 1722.06L909.533 1725.5V1736.95L912.97 1743.83L919.843 1747.26L929.007 1746.12L933.589 1741.54L935.88 1734.66L934.734 1723.21L929.007 1716.33L919.843 1715.19Z" fill="#001550"/>
<path d="M1040.12 1706.02H1052.72L1060.74 1709.46L1066.47 1714.04L1069.9 1722.06L1071.05 1732.37H1033.25L1036.68 1743.83L1040.12 1744.97H1052.72L1058.45 1740.39L1059.59 1738.1L1065.32 1739.24L1069.9 1741.54L1067.61 1747.26L1059.59 1754.14L1051.58 1756.43H1040.12L1032.1 1752.99L1026.38 1747.26L1021.79 1738.1V1724.35L1026.38 1715.19L1034.39 1708.32L1040.12 1706.02ZM1041.27 1715.19L1035.54 1719.77L1034.39 1725.5H1058.45L1057.3 1719.77L1053.87 1716.33L1051.58 1715.19H1041.27Z" fill="#001550"/>
<path d="M1660.99 1873.27H1674.73L1683.9 1877.85L1688.48 1883.58L1690.77 1889.31L1691.92 1899.62H1654.11L1657.55 1908.78L1662.13 1912.22H1673.59L1681.61 1905.34L1688.48 1907.63L1690.77 1911.07L1683.9 1919.09L1672.44 1923.67H1660.99L1649.53 1917.94L1643.8 1908.78L1642.66 1905.34V1892.74L1646.09 1883.58L1655.26 1875.56L1660.99 1873.27ZM1662.13 1882.43L1656.4 1887.01L1655.26 1892.74H1680.46L1678.17 1885.87L1672.44 1882.43H1662.13Z" fill="#001550"/>
<path d="M1539.56 1873.27H1551.02L1559.04 1877.85L1560.18 1880.14L1561.33 1874.41H1571.64V1921.38H1561.33L1560.18 1917.94L1551.02 1923.67H1539.56L1530.4 1917.94L1525.82 1911.07L1524.67 1907.63V1889.31L1529.25 1880.14L1536.13 1874.41L1539.56 1873.27ZM1545.29 1882.43L1539.56 1885.87L1536.13 1891.6L1534.98 1900.76L1537.27 1908.78L1541.85 1913.36L1549.87 1914.51L1555.6 1912.22L1560.18 1906.49L1561.33 1904.2V1891.6L1556.75 1884.72L1552.16 1882.43H1545.29Z" fill="#001550"/>
<path d="M1300.15 1873.27H1311.61L1319.62 1877.85L1320.77 1880.14L1321.92 1874.41H1332.23L1333.37 1921.38H1321.92L1320.77 1917.94L1315.04 1922.53L1311.61 1923.67H1301.3L1292.13 1919.09L1287.55 1913.36L1285.26 1906.49V1890.45L1289.84 1880.14L1296.71 1874.41L1300.15 1873.27ZM1305.88 1882.43L1299.01 1887.01L1295.57 1897.32L1297.86 1908.78L1302.44 1913.36L1311.61 1914.51L1317.33 1911.07L1320.77 1907.63L1321.92 1904.2V1891.6L1317.33 1884.72L1312.75 1882.43H1305.88Z" fill="#001550"/>
<path d="M1426.16 1873.27H1439.9L1449.07 1877.85L1454.79 1884.72L1457.09 1891.6V1899.62H1419.28L1423.87 1909.92L1427.3 1912.22H1438.76L1444.49 1908.78L1446.78 1905.34L1452.5 1906.49L1455.94 1908.78L1453.65 1914.51L1445.63 1921.38L1438.76 1923.67H1427.3L1418.14 1920.23L1411.27 1912.22L1408.97 1907.63L1407.83 1896.18L1411.27 1884.72L1416.99 1877.85L1426.16 1873.27ZM1428.45 1882.43L1423.87 1884.72L1420.43 1890.45V1892.74H1445.63L1444.49 1887.01L1438.76 1882.43H1428.45Z" fill="#001550"/>
<path d="M1274.95 1706.02H1287.55L1296.71 1710.61L1302.44 1717.48L1304.73 1724.35V1732.37L1268.08 1733.52L1270.37 1740.39L1274.95 1744.97H1287.55L1293.28 1739.24L1297.86 1738.1L1303.59 1741.54L1302.44 1746.12L1293.28 1754.14L1286.41 1756.43H1274.95L1265.79 1752.99L1258.91 1744.97L1256.62 1740.39V1723.21L1261.2 1714.04L1270.37 1707.17L1274.95 1706.02ZM1276.1 1715.19L1269.22 1720.92L1268.08 1725.5H1293.28L1292.13 1719.77L1286.41 1715.19H1276.1Z" fill="#001550"/>
<path d="M829.348 1187.11H839.657V1313.12H819.038V1305.1H829.348V1187.11Z" fill="#000923"/>
<path d="M1907.27 1706.02H1918.73L1926.74 1709.46L1934.76 1716.33L1938.2 1723.21L1939.34 1733.52L1935.91 1743.83L1929.04 1751.84L1918.73 1756.43H1907.27L1896.96 1751.84L1890.09 1743.83L1886.65 1733.52L1887.8 1723.21L1893.52 1714.04L1900.4 1708.32L1907.27 1706.02ZM1910.71 1715.19L1903.83 1718.62L1899.25 1724.35L1898.11 1733.52L1901.54 1741.54L1907.27 1746.12L1915.29 1747.26L1922.16 1743.83L1926.74 1738.1L1927.89 1728.93L1924.45 1720.92L1918.73 1716.33L1910.71 1715.19Z" fill="#001550"/>
<path d="M1365.45 92.0039H1399.81L1400.96 94.2949V127.515L1399.81 128.66H1364.3V93.1494L1365.45 92.0039Z" fill="#FECE00"/>
<path d="M1538.42 1706.02H1548.73L1557.89 1709.46L1563.62 1714.04L1569.35 1725.5V1736.95L1565.91 1744.97L1560.18 1750.7L1553.31 1755.28L1548.73 1756.43H1538.42L1529.25 1752.99L1523.53 1747.26L1518.94 1740.39L1517.8 1736.95V1725.5L1523.53 1714.04L1533.83 1707.17L1538.42 1706.02ZM1541.85 1715.19L1533.83 1718.62L1529.25 1726.64V1735.81L1533.83 1743.83L1540.71 1747.26L1549.87 1746.12L1555.6 1740.39L1557.89 1735.81V1726.64L1553.31 1718.62L1545.29 1715.19H1541.85Z" fill="#001550"/>
<path d="M1505.2 272.994H1540.71V309.65H1505.2V272.994Z" fill="#050505"/>
<path d="M1411.27 120.642H1446.78V157.298H1411.27V120.642Z" fill="#050505"/>
<path d="M1209.66 1191.69L1215.38 1193.98L1221.11 1199.71L1225.69 1207.73L1227.98 1215.75V1229.49L1224.55 1240.95L1216.53 1250.11L1207.37 1254.69L1200.49 1255.84L1216.53 1277.6L1232.57 1298.22L1241.73 1310.82V1313.12H1218.82L1214.24 1307.39V1305.1H1230.28L1218.82 1289.06L1202.78 1268.44L1189.04 1250.11V1247.82L1200.49 1244.38L1207.37 1239.8L1213.09 1232.93L1215.38 1224.91V1205.44L1210.8 1195.13L1209.66 1191.69Z" fill="#000923"/>
<path d="M1458.23 245.502H1493.74V281.013H1458.23V245.502Z" fill="#FECE00"/>
<path d="M1145.51 113.769H1190.18V136.679H1155.82V158.443H1145.51V113.769Z" fill="black"/>
<path d="M390.618 1182.53L392.909 1185.96L405.51 1238.66L414.674 1279.9L421.547 1308.53V1313.12H402.073L400.928 1305.1H411.237L405.51 1284.48L390.618 1220.33L384.891 1193.98L390.618 1182.53Z" fill="#000923"/>
<path d="M1750.34 1198.56H1777.83L1790.43 1200.86L1799.59 1205.44L1803.03 1210.02L1791.57 1207.73L1760.65 1206.58V1286.77H1750.34V1198.56Z" fill="#000923"/>
<path d="M710.215 1707.17H719.379L720.524 1708.32L721.67 1740.39L725.106 1744.97L734.271 1746.12L739.998 1743.83L742.289 1741.54L743.435 1734.66L744.58 1707.17H754.89V1738.1L751.453 1748.41L743.435 1755.28L738.853 1756.43H725.106L717.088 1752.99L711.36 1746.12L709.069 1736.95V1708.32L710.215 1707.17Z" fill="#001550"/>
<path d="M1463.96 1198.56H1491.45L1504.05 1200.86L1513.22 1205.44L1515.51 1208.87L1505.2 1207.73L1474.27 1206.58V1286.77H1463.96V1198.56Z" fill="#000923"/>
<path d="M1096.25 1874.41H1106.56L1107.71 1905.34L1110 1911.07L1119.16 1913.36L1127.18 1911.07L1129.47 1906.49L1130.62 1874.41H1140.93V1908.78L1136.34 1917.94L1129.47 1922.53L1124.89 1923.67H1112.29L1103.12 1920.23L1098.54 1914.51L1096.25 1907.63V1874.41Z" fill="#001550"/>
<path d="M622.011 1181.38H623.156V1188.25H633.466V1286.77H622.011V1181.38Z" fill="#000923"/>
<path d="M1753.77 861.785H1754.92V869.804H1798.45V873.24H1846.56V874.386H1800.74V892.714H1754.92L1753.77 891.568V861.785Z" fill="#C1BEBE"/>
<path d="M1695.35 1084.01H1728.57V1117.23H1695.35V1084.01Z" fill="#050505"/>
<path d="M1648.39 1056.52H1681.61V1089.74H1648.39V1056.52Z" fill="#E3E1E1"/>
<path d="M1836.25 998.101H1869.47V1031.32H1836.25V998.101Z" fill="black"/>
<path d="M1789.28 969.463H1822.5V1002.68H1789.28V969.463Z" fill="#C3C0C0"/>
<path d="M1060.74 1183.67H1063.03L1082.5 1224.91L1112.29 1289.06L1122.6 1311.97L1121.45 1313.12H1100.83L1097.4 1307.39V1305.1H1111.14L1089.38 1259.28L1059.59 1195.13L1058.45 1188.25L1060.74 1183.67Z" fill="#000923"/>
<path d="M1644.95 1183.67L1648.39 1187.11L1669 1230.64L1686.19 1268.44L1705.66 1309.68V1313.12H1685.04L1680.46 1306.24V1305.1L1694.21 1303.95L1674.73 1262.71L1657.55 1224.91L1641.51 1190.55L1644.95 1183.67Z" fill="#000923"/>
<path d="M2061.91 1247.82L2067.64 1250.11L2074.51 1255.84L2080.24 1267.29L2081.39 1279.9L2079.1 1291.35L2073.37 1301.66L2063.06 1310.82L2050.46 1315.41H2027.55L2016.09 1310.82L2008.08 1305.1L2010.37 1303.95L2017.24 1306.24L2029.84 1307.39L2045.88 1305.1L2056.19 1299.37L2059.62 1298.22L2067.64 1282.19L2068.79 1277.6V1263.86L2065.35 1253.55L2061.91 1247.82Z" fill="#000923"/>
<path d="M375.727 1228.35L378.018 1231.78L381.454 1253.55L369.999 1275.31L357.398 1300.51L349.38 1317.7L345.943 1314.26L341.361 1303.95L343.652 1297.08L369.999 1244.38L375.727 1228.35Z" fill="#000A27"/>
<path d="M1184.46 38.165H1214.24L1215.38 39.3105V69.0938L1213.09 70.2393H1184.46L1183.31 69.0938V39.3105L1184.46 38.165Z" fill="#F8F100"/>
<path d="M298.978 1228.35H301.269L306.996 1243.24L309.287 1248.97L297.832 1299.37L294.396 1313.12H274.922L277.213 1305.1H284.086L286.377 1290.21L297.832 1237.51L298.978 1228.35Z" fill="#000D31"/>
<path d="M1325.35 1706.02H1336.81L1343.68 1709.46L1345.97 1714.04L1340.24 1718.62H1337.95L1334.52 1715.19H1325.35V1720.92L1332.23 1725.5L1343.68 1731.23L1348.26 1736.95V1747.26L1342.54 1754.14L1335.66 1756.43H1323.06L1313.9 1751.84L1311.61 1748.41V1744.97L1319.62 1741.54L1324.21 1746.12L1326.5 1747.26H1333.37L1336.81 1744.97L1335.66 1739.24L1318.48 1730.08L1313.9 1725.5L1312.75 1718.62L1316.19 1710.61L1325.35 1706.02Z" fill="#001550"/>
<path d="M1711.39 1873.27H1723.99L1730.86 1876.71L1732.01 1881.29L1725.13 1885.87L1721.7 1882.43H1713.68L1711.39 1887.01L1715.97 1891.6L1727.43 1896.18L1733.15 1900.76L1735.44 1906.49L1734.3 1915.65L1726.28 1922.53L1721.7 1923.67H1710.24L1701.08 1919.09L1697.64 1914.51V1912.22L1704.52 1908.78H1706.81L1712.53 1914.51H1720.55L1722.84 1913.36V1906.49L1703.37 1896.18L1699.93 1890.45L1701.08 1880.14L1707.95 1874.41L1711.39 1873.27Z" fill="#001550"/>
<path d="M469.658 1187.11L479.968 1188.25L481.113 1268.44L485.695 1286.77L479.968 1284.48L473.095 1276.46L469.658 1266.15V1187.11Z" fill="#00071C"/>
<path d="M929.007 1873.27H942.753L948.48 1876.71V1887.01L942.753 1884.72L939.316 1883.58H931.298L924.425 1885.87L922.134 1891.6V1904.2L925.57 1909.92L929.007 1912.22H941.607L946.189 1908.78H948.48V1920.23L940.462 1923.67H927.861L918.697 1919.09L911.824 1911.07L909.533 1905.34V1891.6L914.115 1882.43L922.134 1875.56L929.007 1873.27Z" fill="#001550"/>
<path d="M1383.77 35.874H1414.7V66.8027H1383.77V35.874Z" fill="black"/>
<path d="M1336.81 7.23633H1367.74V38.165H1336.81V7.23633Z" fill="#F8F100"/>
<path d="M1860.3 1706.02H1872.91L1878.63 1708.32L1879.78 1709.46V1719.77L1874.05 1717.48L1870.61 1716.33H1862.6L1856.87 1719.77L1853.43 1725.5V1736.95L1858.01 1743.83L1860.3 1744.97H1872.91L1879.78 1741.54V1752.99L1871.76 1756.43H1860.3L1851.14 1752.99L1843.12 1743.83L1840.83 1736.95V1725.5L1844.27 1716.33L1853.43 1708.32L1860.3 1706.02Z" fill="#001550"/>
<path d="M1610.58 1273.02H1660.99L1664.42 1281.04H1620.89L1617.46 1291.35L1607.15 1313.12H1585.38L1587.67 1305.1H1596.84L1600.27 1294.79L1609.44 1274.17L1610.58 1273.02Z" fill="#000923"/>
<path d="M542.971 1706.02H555.571L561.299 1708.32V1719.77L555.571 1717.48L545.262 1716.33L538.389 1719.77L534.952 1726.64V1735.81L538.389 1742.68L541.825 1744.97H555.571L561.299 1741.54V1752.99L554.426 1756.43H541.825L532.661 1752.99L525.788 1744.97L523.497 1740.39L522.352 1730.08L524.643 1719.77L530.37 1711.75L538.389 1707.17L542.971 1706.02Z" fill="#001550"/>
<path d="M1026.38 1273.02H1076.78L1080.21 1281.04H1036.68L1033.25 1291.35L1024.08 1311.97L1022.94 1313.12H1002.32L1003.46 1306.24L1004.61 1305.1L1012.63 1303.95L1026.38 1273.02Z" fill="#000923"/>
<path d="M686.159 1873.27H694.178L702.196 1877.85L706.778 1884.72V1896.18L703.342 1901.91L697.614 1906.49L694.178 1907.63H685.014L675.85 1901.91L672.413 1892.74L674.704 1882.43L680.432 1875.56L686.159 1873.27Z" fill="#FDCF00"/>
<path d="M1950.8 1235.22L1961.11 1236.37V1254.69H1911.85V1286.77H1901.54V1246.68H1950.8V1235.22Z" fill="#000923"/>
<path d="M1397.52 1235.22L1407.83 1236.37V1254.69H1358.57V1286.77H1348.26V1246.68H1397.52V1235.22Z" fill="#000923"/>
<path d="M1583.09 1689.99H1594.55V1707.17H1602.57V1716.33L1601.42 1717.48H1594.55V1754.14H1583.09V1717.48H1576.22L1575.07 1716.33V1708.32L1576.22 1707.17H1583.09V1689.99Z" fill="#001550"/>
<path d="M798.419 1689.99H809.874V1707.17H816.747L817.893 1708.32V1716.33L816.747 1717.48H809.874V1754.14H798.419V1717.48H791.546L790.4 1716.33V1707.17H798.419V1689.99Z" fill="#001550"/>
<path d="M1138.63 85.1309H1148.94V129.806L1145.51 128.66L1138.63 119.496L1134.05 113.769L1128.33 108.041L1115.72 94.2949L1110 86.2764L1138.63 85.1309Z" fill="#F8F200"/>
<path d="M1919.87 971.754H1947.36L1948.51 972.899V1000.39L1947.36 1001.54H1919.87L1918.73 1000.39V972.899L1919.87 971.754Z" fill="#181717"/>
<path d="M1786.99 1677.39H1798.45V1754.14H1786.99V1677.39Z" fill="#001550"/>
<path d="M769.781 1677.39H780.091L781.236 1678.53V1754.14H769.781V1677.39Z" fill="#001550"/>
<path d="M1871.76 944.262H1901.54V972.899H1871.76V944.262Z" fill="#E3E1E1"/>
<path d="M1871.76 830.856H1899.25V860.64H1871.76L1870.61 859.494V832.002L1871.76 830.856Z" fill="#0C0C0C"/>
<path d="M846.53 1707.17H856.84L864.858 1723.21L870.586 1735.81L882.041 1709.46L883.187 1707.17H894.642L892.351 1714.04L871.731 1755.28L869.44 1756.43L846.53 1710.61V1707.17Z" fill="#001550"/>
<path d="M950.771 1874.41H962.227L971.391 1892.74L975.973 1903.05L988.573 1874.41H1000.03L997.737 1881.29L977.118 1922.53H973.682L959.936 1893.89L950.771 1874.41Z" fill="#001550"/>
<path d="M1232.57 1874.41H1244.02L1255.48 1899.62L1256.62 1904.2L1269.22 1875.56L1270.37 1874.41H1280.68L1279.53 1880.14L1257.77 1923.67H1255.48L1242.88 1897.32L1232.57 1876.71V1874.41Z" fill="#001550"/>
<path d="M564.735 1707.17H576.19L586.5 1730.08L588.791 1736.95L601.392 1708.32L602.537 1707.17H612.847L611.701 1712.9L589.937 1756.43H587.646L573.899 1727.79L564.735 1709.46V1707.17Z" fill="#001550"/>
<path d="M1185.6 1857.23H1195.91V1874.41H1203.93V1884.72H1195.91V1921.38H1185.6V1884.72H1177.58L1176.44 1883.58V1875.56L1177.58 1874.41H1185.6V1857.23Z" fill="#001550"/>
<path d="M1950.8 1187.11L1961.11 1188.25V1205.44L1913 1206.58V1229.49H1901.54V1198.56L1902.69 1197.42H1950.8V1187.11Z" fill="#000923"/>
<path d="M1397.52 1187.11L1407.83 1188.25V1205.44L1359.72 1206.58V1229.49H1348.26V1198.56L1349.41 1197.42H1397.52V1187.11Z" fill="#000923"/>
<path d="M1823.65 803.364H1852.29V832.002H1823.65V803.364Z" fill="#E3E1E1"/>
<path d="M1156.96 1844.63H1167.27V1921.38H1156.96V1844.63Z" fill="#001550"/>
<path d="M1772.1 728.906L1808.76 730.052V747.234L1807.61 749.525H1769.81L1767.52 740.361V730.052L1772.1 728.906Z" fill="#C4C1C1"/>
<path d="M1164.98 1248.97L1169.56 1251.26L1176.44 1260.42V1311.97L1175.29 1313.12H1156.96L1155.82 1311.97V1305.1H1164.98V1248.97Z" fill="#000923"/>
<path d="M1365.45 1873.27H1375.75L1378.05 1874.41L1376.9 1881.29L1375.75 1883.58H1365.45L1360.86 1888.16L1359.72 1891.6L1358.57 1921.38H1347.12V1875.56L1348.26 1874.41H1358.57L1359.72 1877.85L1365.45 1873.27Z" fill="#001550"/>
<path d="M1231.42 66.8027H1261.2V89.7129H1231.42V66.8027Z" fill="black"/>
<path d="M1950.8 1293.64H1961.11V1313.12H1891.23V1305.1H1950.8V1293.64Z" fill="#000923"/>
<path d="M1397.52 1293.64H1407.83V1313.12H1337.95V1305.1H1397.52V1293.64Z" fill="#000923"/>
<path d="M979.409 1706.02H988.573L992.01 1707.17L990.864 1712.9L988.573 1716.33H978.264L974.827 1719.77L972.536 1731.23L971.391 1754.14H961.081V1707.17H971.391V1712.9H973.682L975.973 1708.32L979.409 1706.02Z" fill="#001550"/>
<path d="M1365.45 92.0039H1399.81L1400.96 94.2949V127.515H1396.37L1391.79 120.642L1375.75 103.459L1368.88 94.2949L1365.45 92.0039Z" fill="#F8EF00"/>
<path d="M667.831 1293.64H678.141V1313.12H612.847L611.701 1311.97V1305.1H667.831V1293.64Z" fill="#000923"/>
<path d="M304.705 1182.53L308.142 1187.11L326.47 1226.06L341.361 1258.13L342.507 1262.71L339.07 1270.73L336.779 1269.59L327.615 1247.82L309.287 1208.87L301.269 1190.55H303.56V1183.67L304.705 1182.53Z" fill="#001550"/>
<path d="M193.591 908.751H217.646L221.083 913.333V915.624H105.387L71.0215 914.479V913.333L142.043 911.042L193.591 908.751Z" fill="#171616"/>
<path d="M888.914 1187.11L896.933 1188.25L901.515 1197.42L915.261 1230.64L924.425 1252.4L925.57 1254.69L920.988 1266.15L918.697 1262.71L910.679 1240.95L894.642 1203.15L888.914 1189.4V1187.11Z" fill="#000923"/>
<path d="M1461.67 245.502H1493.74V281.013L1488.01 275.285L1473.12 259.248L1463.96 247.793L1461.67 245.502Z" fill="#F8F200"/>
<path d="M1428.45 1555.96H1436.47L1442.19 1559.4L1445.63 1566.27V1573.15L1441.05 1580.02L1436.47 1582.31H1428.45L1422.72 1578.87L1419.28 1575.44L1418.14 1568.56L1421.58 1560.54L1425.01 1557.11L1428.45 1555.96Z" fill="#001550"/>
<path d="M1821.36 983.209H1822.5V1002.68H1789.28V985.5L1820.21 986.646L1821.36 983.209Z" fill="#E5E3E3"/>
<path d="M998.883 1707.17H1009.19L1010.34 1708.32V1754.14H998.883V1707.17Z" fill="#001550"/>
<path d="M828.202 1707.17H837.366L838.512 1708.32V1754.14H827.057V1708.32L828.202 1707.17Z" fill="#001550"/>
<path d="M1648.39 1056.52H1681.61V1071.41L1679.31 1072.56H1650.68L1648.39 1069.12V1056.52Z" fill="#C4C1C1"/>
<path d="M1485.72 29.001H1508.63V50.7656L1507.49 51.9111H1485.72V29.001Z" fill="#101010"/>
<path d="M1167.27 1197.42L1183.31 1198.56L1192.47 1203.15L1194.76 1206.58H1177.58V1234.08H1166.13V1198.56L1167.27 1197.42Z" fill="#000923"/>
<path d="M1438.76 1.50879H1461.67V23.2734H1438.76V1.50879Z" fill="#FECE00"/>
<path d="M1051.58 1214.6L1053.87 1218.04L1059.59 1234.08L1051.58 1250.11L1049.29 1255.84H1068.76V1256.99H1035.54L1034.39 1254.69L1046.99 1227.2L1050.43 1215.75L1051.58 1214.6Z" fill="#000923"/>
<path d="M1634.64 1214.6L1636.93 1215.75L1642.66 1230.64L1641.51 1237.51L1633.49 1254.69L1652.97 1255.84V1256.99H1618.6L1619.75 1251.26L1631.2 1226.06L1634.64 1214.6Z" fill="#000923"/>
<path d="M1183.31 39.3105L1187.89 40.4561L1202.78 56.4932L1210.8 66.8027V69.0938L1184.46 70.2393L1183.31 69.0938V39.3105Z" fill="#FDD000"/>
<path d="M1386.06 1874.41H1396.37V1921.38H1386.06V1874.41Z" fill="#001550"/>
<path d="M1214.24 1874.41H1224.55V1921.38H1214.24V1874.41Z" fill="#001550"/>
<path d="M1760.65 1707.17H1770.96V1754.14H1760.65V1707.17Z" fill="#001550"/>
<path d="M1336.81 8.38184L1341.39 9.52734L1352.84 22.1279L1363.15 34.7285L1364.3 38.165H1336.81V8.38184Z" fill="#FECE00"/>
<path d="M2027.55 1195.13H2035.57L2043.59 1198.56L2049.31 1204.29H2036.71L2029.84 1207.73L2026.4 1213.46V1221.47L2029.84 1227.2L2030.99 1229.49L2025.26 1227.2L2017.24 1220.33L2013.8 1212.31L2014.95 1204.29L2019.53 1198.56L2027.55 1195.13Z" fill="#000923"/>
<path d="M1933.62 1066.83H1954.24V1087.45H1933.62V1066.83Z" fill="black"/>
<path d="M1886.65 1039.34H1907.27V1058.81L1906.12 1059.96H1887.8L1886.65 1058.81V1039.34Z" fill="#E3E1E1"/>
<path d="M1691.92 833.147L1693.06 836.584H1750.34L1752.63 838.875V843.457L1737.74 844.603H1713.68L1691.92 843.457V833.147Z" fill="#ACA7A7"/>
<path d="M1823.65 803.364H1852.29V817.11H1825.94L1823.65 813.674V803.364Z" fill="#C4C1C1"/>
<path d="M1871.76 944.262H1901.54L1899.25 958.008H1872.91L1871.76 944.262Z" fill="#C4C1C1"/>
<path d="M1594.55 966.026H1648.39L1649.53 971.754H1646.09H1596.84L1595.69 1019.87H1594.55V966.026Z" fill="#ACA7A7"/>
<path d="M685.014 1197.42H717.088L718.233 1198.56V1305.1H717.088V1205.44H694.178V1198.56H685.014V1197.42Z" fill="#000923"/>
<path d="M1717.12 929.37H1718.26V962.59L1657.55 961.444L1658.7 956.862L1715.97 955.717L1717.12 929.37Z" fill="#ACA7A7"/>
<path d="M1655.26 840.021H1656.4V900.732H1624.33L1627.77 893.859H1654.11L1655.26 840.021Z" fill="#ACA7A7"/>
<path d="M2060.77 1189.4L2065.35 1190.55L2072.22 1196.27L2076.81 1204.29V1206.58L2060.77 1214.6L2055.04 1207.73L2051.6 1205.44L2065.35 1198.56L2061.91 1191.69L2060.77 1189.4Z" fill="#000923"/>
<path d="M1654.11 840.021H1655.26V875.531L1654.11 870.949H1640.37L1643.8 860.64L1654.11 840.021Z" fill="#E4E2E2"/>
<path d="M1439.9 1.50879H1461.67V23.2734H1459.38L1451.36 14.1094L1442.19 3.7998L1439.9 1.50879Z" fill="#F8F200"/>
<path d="M1886.65 1039.34H1907.27V1046.21L1904.98 1048.5H1886.65V1039.34Z" fill="#C4C1C1"/>
<path d="M1772.1 728.906L1808.76 730.052L1807.61 733.488H1769.81L1768.66 739.216H1767.52V730.052L1772.1 728.906Z" fill="#ACA7A7"/>
<path d="M1387.21 1848.07H1394.08L1397.52 1851.5L1396.37 1859.52L1394.08 1860.67H1387.21L1383.77 1856.09L1384.92 1850.36L1387.21 1848.07Z" fill="#001550"/>
<path d="M1001.17 1680.82H1008.05L1011.48 1685.41L1010.34 1691.13L1008.05 1693.42H1001.17L997.737 1689.99V1684.26L1001.17 1680.82Z" fill="#001550"/>
<path d="M829.348 1680.82H836.221L839.657 1684.26V1689.99L836.221 1693.42H829.348L825.911 1688.84L827.057 1683.11L829.348 1680.82Z" fill="#001550"/>
<path d="M1216.53 1848.07H1223.4L1225.69 1850.36V1858.38L1223.4 1860.67H1216.53L1213.09 1857.23L1214.24 1849.21L1216.53 1848.07Z" fill="#001550"/>
<path d="M1762.94 1680.82H1769.81L1773.25 1686.55L1770.96 1692.28L1769.81 1693.42H1762.94L1759.5 1689.99V1684.26L1762.94 1680.82Z" fill="#001550"/>
<path d="M1819.07 1742.68H1824.79L1828.23 1747.26L1827.08 1752.99L1824.79 1755.28H1817.92L1814.48 1749.55L1816.78 1743.83L1819.07 1742.68Z" fill="#001550"/>
<path d="M1595.69 1010.7H1596.84L1597.98 1016.43H1640.37L1642.66 1018.72L1641.51 1019.87H1595.69V1010.7Z" fill="#F2F1F1"/>
<path d="M1753.77 844.603H1799.59V846.894H1754.92L1753.77 860.64H1752.63V845.748L1753.77 844.603Z" fill="#C4C0C0"/>
<path d="M1703.37 901.878H1718.26V907.605L1717.12 905.314H1658.7L1657.55 909.896V903.023L1703.37 901.878Z" fill="#FEFEFE"/>
<path d="M1768.66 763.271H1769.81V768.999H1807.61V765.562H1809.9L1808.76 771.29H1767.52L1768.66 763.271Z" fill="#FEFEFE"/>
<path d="M1649.53 1056.52H1681.61V1058.81L1679.31 1059.96H1650.68L1649.53 1056.52Z" fill="#ACA7A7"/>
<path d="M1872.91 944.262H1900.4L1899.25 947.698H1872.91V944.262Z" fill="#ACA7A7"/>
<path d="M1824.79 803.364H1852.29V805.655L1850 806.801H1825.94L1824.79 803.364Z" fill="#ACA7A7"/>
<path d="M1745.75 782.745H1752.63V789.618L1746.9 786.182L1693.06 785.036V783.891L1745.75 782.745Z" fill="#FEFEFE"/>
<path d="M1649.53 1085.16L1650.68 1087.45L1680.46 1086.3L1681.61 1089.74H1648.39L1649.53 1085.16Z" fill="#FEFEFE"/>
<path d="M1824.79 827.42L1825.94 829.711L1851.14 828.565L1852.29 832.002H1823.65L1824.79 827.42Z" fill="#FEFEFE"/>
<path d="M1610.58 1273.02H1660.99V1274.17L1612.88 1275.31L1609.44 1276.46L1610.58 1273.02Z" fill="#000923"/>
<path d="M2016.09 1244.38L2022.97 1246.68L2040.15 1255.84L2042.44 1259.28L2035.57 1256.99L2020.68 1248.97L2016.09 1244.38Z" fill="#000923"/>
<path d="M1626.62 1016.43H1640.37L1642.66 1018.72L1641.51 1019.87H1625.48L1626.62 1016.43Z" fill="#FEFEFE"/>
<path d="M1899.25 967.172L1901.54 969.463V972.899H1871.76V970.608H1899.25V967.172Z" fill="#FEFEFE"/>
<path d="M1904.98 1056.52L1907.27 1058.81L1906.12 1059.96H1887.8L1886.65 1057.67L1904.98 1056.52Z" fill="#FEFEFE"/>
<path d="M2021.82 1197.42L2024.11 1198.56L2017.24 1205.44L2016.09 1216.89L2013.8 1212.31L2014.95 1204.29L2019.53 1198.56L2021.82 1197.42Z" fill="#000923"/>
<path d="M2013.8 1279.9H2017.24L2019.53 1287.91L2013.8 1285.62L2011.51 1281.04L2013.8 1279.9Z" fill="#000923"/>
<path d="M682.723 1543.36L683.868 1547.94H681.577L682.723 1543.36Z" fill="#FEFEFE"/>
</svg>
